<?xml version="1.0" encoding="utf-8"?>
<!-- Generator: Adobe Illustrator 19.2.1, SVG Export Plug-In . SVG Version: 6.00 Build 0)  -->
<svg version="1.1" id="Layer_1" xmlns="https://www.w3.org/2000/svg" xmlns:xlink="https://www.w3.org/1999/xlink" x="0px" y="0px"
	 viewBox="0 0 14.5 14.8" style="enable-background:new 0 0 14.5 14.8;" xml:space="preserve">
<style type="text/css">
	.st0{fill:#C4C5C5;}
</style>
<g id="DY5Rbe.tif">
	<g>
		<path class="st0" d="M4.9,3.2C4.9,3.2,4.9,3.2,4.9,3.2C4.9,3.2,4.9,3.2,4.9,3.2c0.1,0.1,0.1,0.2,0,0.3c0,0,0,0,0,0
			c0-0.1,0-0.1,0-0.2c0,0,0,0,0,0C4.9,3.3,4.9,3.3,4.9,3.2C4.9,3.2,4.9,3.2,4.9,3.2z"/>
		<path class="st0" d="M10.9,3.4C10.9,3.4,10.9,3.4,10.9,3.4C10.8,3.4,10.8,3.4,10.9,3.4c0,0,0-0.1,0-0.1c0,0,0,0,0,0c0,0,0,0,0,0
			C10.9,3.3,10.9,3.3,10.9,3.4z"/>
		<path class="st0" d="M4.9,3.2c0,0,0,0.1,0,0.1C4.9,3.3,4.9,3.3,4.9,3.2z"/>
		<path class="st0" d="M7.1,0.7C7.1,0.7,7.1,0.7,7.1,0.7c0,0,0.1,0,0.1,0c0,0,0,0,0,0C7.1,0.7,7.1,0.7,7.1,0.7
			C7.1,0.7,7.1,0.7,7.1,0.7C7.1,0.7,7.1,0.7,7.1,0.7z"/>
		<path class="st0" d="M9.2,7.6C9.2,7.6,9.2,7.6,9.2,7.6C9.1,7.6,9.1,7.6,9.2,7.6C9.1,7.6,9.1,7.6,9.2,7.6C9.1,7.6,9.1,7.6,9.2,7.6
			C9.2,7.6,9.2,7.6,9.2,7.6z"/>
		<path class="st0" d="M4.9,3.6c0-0.1,0-0.3,0-0.4c0-0.2,0-0.4,0.1-0.6c0-0.1,0.1-0.3,0.1-0.4c0.1-0.3,0.3-0.5,0.5-0.7
			C5.8,1.3,6,1.2,6.2,1c0.1-0.1,0.2-0.1,0.3-0.1c0.2-0.1,0.4-0.1,0.6-0.2c0,0,0,0,0,0c0,0,0,0,0.1,0c0,0,0,0,0.1,0
			c0,0.1,0,0.1,0,0.2C7.1,1,7,1,6.9,1.1C6.7,1.4,6.6,1.7,6.5,2C6.4,2.3,6.3,2.6,6.3,2.9c0,0.5,0.2,1,0.5,1.4C7.2,4.7,7.5,5,8,5.1
			c0.3,0.1,0.7,0.2,1,0.1c0,0,0.1,0,0.1,0c0,0,0,0,0.1,0c0,0,0,0,0.1,0c0,0,0,0,0,0.1c0,0,0,0.1,0,0.1C9,5.6,8.7,5.8,8.4,5.9
			C8.2,6,8,6,7.9,6C7.8,6,7.7,6,7.7,6c0,0-0.1,0-0.1,0C6.9,6,6.3,5.8,5.8,5.4C5.5,5.1,5.2,4.7,5,4.2C4.9,4,4.9,3.8,4.9,3.6z"/>
		<path class="st0" d="M10.8,3.3C10.8,3.3,10.8,3.3,10.8,3.3c0,0,0,0.1,0,0.1c0,0,0,0,0,0c-0.1,0.1-0.1,0.2-0.2,0.3
			c-0.1,0.1-0.1,0.2,0,0.3c0,0.1,0.1,0.2,0.1,0.3c0,0.1,0.1,0.1,0,0.2c0,0,0,0-0.1,0c0,0-0.1,0-0.1,0c-0.1,0-0.2-0.1-0.3-0.1
			c-0.1,0-0.1,0-0.2,0C10.1,4.4,10,4.5,9.9,4.6c0,0-0.1,0.1-0.1,0.1c0,0-0.1,0-0.1,0c0,0,0-0.1-0.1-0.1c0,0,0,0,0-0.1
			c0-0.1,0-0.2,0-0.3c0-0.1,0-0.1-0.1-0.1C9.4,4,9.3,3.9,9.2,3.9c0,0-0.1,0-0.1,0c0-0.1,0-0.1,0-0.2c0.1-0.1,0.2-0.1,0.3-0.1
			c0,0,0,0,0.1,0c0.1,0,0.1,0,0.2-0.1c0,0,0,0,0-0.1c0-0.1,0-0.2,0-0.3c0-0.1,0.1-0.1,0.2-0.1C10,3,10,3.1,10.1,3.2
			c0.1,0.2,0.2,0.2,0.4,0.1c0.1,0,0.1,0,0.2,0C10.7,3.3,10.8,3.2,10.8,3.3C10.8,3.3,10.8,3.3,10.8,3.3z"/>
		<path class="st0" d="M8.9,1.5c0,0.1-0.1,0.1-0.1,0.2c0,0.1-0.1,0.1,0,0.2c0,0.1,0.1,0.1,0.1,0.2c0,0,0,0.1,0,0.1c0,0,0,0,0,0.1
			l0,0l0,0c0,0,0,0,0,0c0,0,0,0,0,0c0,0,0,0,0,0c-0.1,0-0.1,0-0.2,0c-0.1,0-0.1,0-0.2-0.1c-0.1,0-0.1,0-0.1,0
			C8.2,2.4,8.2,2.5,8.1,2.5c0,0-0.1,0-0.1,0c0,0,0,0,0-0.1c0-0.1,0-0.2,0-0.3c0-0.1,0-0.1-0.1-0.2C7.7,2,7.7,1.9,7.6,1.9
			c0,0,0,0-0.1-0.1c0-0.1,0-0.1,0.1-0.2c0.1,0,0.1,0,0.2-0.1C7.9,1.6,8,1.5,8,1.4c0,0,0-0.1,0-0.1c0,0,0-0.1,0-0.1c0,0,0-0.1,0-0.1
			c0,0,0,0,0,0c0.1,0,0.1,0,0.2,0c0,0.1,0.1,0.1,0.1,0.2c0.1,0.1,0.1,0.1,0.2,0.1c0.1,0,0.1,0,0.2,0c0,0,0.1,0,0.1,0
			c0,0,0.1,0,0.1,0C8.9,1.4,8.9,1.4,8.9,1.5C8.9,1.5,8.9,1.5,8.9,1.5z"/>
		<path class="st0" d="M9.1,7.6c0,0,0-0.1,0-0.1c0-0.1,0-0.1,0-0.2c0-0.1,0-0.1-0.1-0.2C8.8,7,8.7,7,8.7,7c0,0,0-0.1,0-0.1
			c0-0.1,0.1-0.1,0.2-0.1C9,6.7,9,6.7,9.1,6.5c0,0,0-0.1,0-0.1c0,0,0,0,0-0.1c0,0,0,0,0,0c0,0,0.1,0,0.1,0c0,0,0,0,0.1,0
			c0,0.1,0.1,0.1,0.1,0.2c0,0,0.1,0.1,0.1,0.1c0.1,0,0.2,0,0.3,0c0,0,0.1,0,0.1,0c0,0,0,0,0,0c0,0,0,0,0,0.1c0,0.1-0.1,0.1-0.1,0.2
			C9.7,6.9,9.7,7,9.8,7.1c0,0.1,0.1,0.1,0.1,0.2c0,0,0,0.1,0,0.1c0,0-0.1,0-0.1,0c-0.1,0-0.2,0-0.2-0.1c-0.1,0-0.1,0-0.2,0
			C9.3,7.4,9.3,7.5,9.2,7.5c0,0,0,0-0.1,0.1C9.2,7.6,9.2,7.6,9.1,7.6C9.1,7.6,9.1,7.6,9.1,7.6z"/>
		<path class="st0" d="M9.1,3.7c0,0.1,0,0.1,0,0.2C9.1,3.8,9.1,3.7,9.1,3.7z"/>
		<path class="st0" d="M9.7,4.6c0,0,0.1,0,0.1,0C9.7,4.7,9.7,4.7,9.7,4.6z"/>
		<path class="st0" d="M9.1,6.3C9.1,6.3,9.1,6.3,9.1,6.3C9.1,6.3,9.1,6.3,9.1,6.3C9.1,6.2,9.2,6.2,9.1,6.3C9.2,6.3,9.2,6.2,9.1,6.3z
			"/>
		<path class="st0" d="M7.7,6c0.1,0,0.1,0,0.2,0C7.8,6,7.7,6,7.7,6z"/>
		<path class="st0" d="M8.8,2.2C8.8,2.2,8.8,2.2,8.8,2.2C8.9,2.2,8.9,2.2,8.8,2.2C8.8,2.2,8.9,2.2,8.8,2.2z"/>
		<path class="st0" d="M7.5,1.8C7.6,1.8,7.6,1.8,7.5,1.8C7.6,1.9,7.5,1.9,7.5,1.8z"/>
		<path class="st0" d="M9.8,7.4c0,0,0.1,0,0.1,0C9.9,7.4,9.8,7.4,9.8,7.4z"/>
		<path class="st0" d="M9.9,6.6C9.9,6.6,9.9,6.6,9.9,6.6c0-0.1,0-0.1,0-0.1C10,6.6,10,6.6,9.9,6.6z"/>
		<path class="st0" d="M10.6,4.4C10.6,4.4,10.7,4.4,10.6,4.4c0.1,0,0.1,0,0.1,0C10.7,4.4,10.6,4.4,10.6,4.4z"/>
		<path class="st0" d="M7.9,2.4C7.9,2.4,7.9,2.4,7.9,2.4C8,2.4,8,2.4,7.9,2.4C8,2.5,8,2.5,7.9,2.4C7.9,2.5,7.9,2.5,7.9,2.4z"/>
		<path class="st0" d="M8.6,6.8c0,0,0,0.1,0,0.1C8.6,6.9,8.6,6.9,8.6,6.8z"/>
		<path class="st0" d="M9.1,7.6C9.1,7.6,9.1,7.6,9.1,7.6C9.1,7.6,9.1,7.6,9.1,7.6C9.1,7.6,9.1,7.6,9.1,7.6z"/>
		<path class="st0" d="M8,2.5C8,2.5,8,2.5,8,2.5c0,0,0.1,0,0.1,0C8,2.5,8,2.5,8,2.5z"/>
		<path class="st0" d="M8.1,1.1C8.1,1.1,8.1,1.1,8.1,1.1C8,1.2,8,1.1,8.1,1.1C8,1.1,8,1.1,8.1,1.1z"/>
		<path class="st0" d="M9.9,6.5C9.9,6.5,9.8,6.5,9.9,6.5C9.9,6.5,9.9,6.5,9.9,6.5C9.9,6.5,9.9,6.5,9.9,6.5z"/>
		<path class="st0" d="M8.9,1.4C8.9,1.4,8.9,1.4,8.9,1.4C8.9,1.4,8.9,1.5,8.9,1.4C8.9,1.5,8.9,1.5,8.9,1.4z"/>
		<path class="st0" d="M10.8,3.3c0,0-0.1,0-0.1,0C10.7,3.2,10.8,3.2,10.8,3.3z"/>
		<path class="st0" d="M8.8,2.3C8.8,2.3,8.8,2.3,8.8,2.3C8.8,2.3,8.8,2.3,8.8,2.3C8.8,2.3,8.8,2.3,8.8,2.3z"/>
		<path class="st0" d="M8.9,1.4C8.9,1.5,8.9,1.5,8.9,1.4C8.9,1.5,8.9,1.5,8.9,1.4C8.9,1.5,8.9,1.5,8.9,1.4z"/>
		<path class="st0" d="M8.8,1.4c0,0-0.1,0-0.1,0C8.8,1.4,8.8,1.4,8.8,1.4z"/>
		<path class="st0" d="M8,1.3C8,1.3,8,1.3,8,1.3C8,1.3,8,1.3,8,1.3z"/>
		<path class="st0" d="M9.1,6.3C9.1,6.3,9.1,6.3,9.1,6.3C9.1,6.3,9.1,6.3,9.1,6.3C9.1,6.3,9.1,6.3,9.1,6.3z"/>
		<path class="st0" d="M9.1,6.3C9.2,6.2,9.2,6.2,9.1,6.3C9.2,6.2,9.2,6.2,9.1,6.3C9.2,6.3,9.2,6.2,9.1,6.3z"/>
		<path class="st0" d="M9.3,5.4C9.3,5.3,9.3,5.3,9.3,5.4C9.3,5.3,9.3,5.3,9.3,5.4z"/>
		<path class="st0" d="M10.7,4.4C10.7,4.4,10.7,4.4,10.7,4.4C10.7,4.4,10.7,4.4,10.7,4.4C10.7,4.4,10.7,4.4,10.7,4.4z"/>
		<path class="st0" d="M9.2,5.3C9.2,5.3,9.2,5.3,9.2,5.3C9.2,5.3,9.2,5.3,9.2,5.3z"/>
		<path class="st0" d="M9.7,3.3C9.7,3.3,9.7,3.3,9.7,3.3C9.7,3.3,9.7,3.3,9.7,3.3z"/>
		<path class="st0" d="M9.9,6.5C9.9,6.5,9.9,6.5,9.9,6.5C9.9,6.5,9.9,6.5,9.9,6.5C9.9,6.5,9.9,6.6,9.9,6.5C9.9,6.6,9.9,6.5,9.9,6.5z
			"/>
		<path class="st0" d="M8.8,2.2C8.9,2.2,8.9,2.2,8.8,2.2C8.9,2.3,8.9,2.3,8.8,2.2C8.8,2.3,8.8,2.2,8.8,2.2z"/>
		<path class="st0" d="M7.2,0.7C7.2,0.7,7.1,0.7,7.2,0.7C7.1,0.7,7.1,0.7,7.2,0.7C7.1,0.7,7.1,0.7,7.2,0.7C7.1,0.7,7.1,0.7,7.2,0.7
			C7.2,0.7,7.2,0.7,7.2,0.7z"/>
		<path class="st0" d="M9.6,4.5C9.6,4.5,9.6,4.5,9.6,4.5C9.6,4.5,9.6,4.5,9.6,4.5z"/>
		<path class="st0" d="M10.8,3.4c0,0,0-0.1,0-0.1C10.9,3.3,10.8,3.3,10.8,3.4z"/>
		<path class="st0" d="M7.1,0.7C7.1,0.7,7.1,0.7,7.1,0.7C7.1,0.7,7.1,0.7,7.1,0.7C7.1,0.7,7.1,0.7,7.1,0.7z"/>
	</g>
</g>
</svg>
